<?xml version="1.0" encoding="UTF-8"?>
<svg xmlns="http://www.w3.org/2000/svg" viewBox="0 0 800 500" width="800" height="500">
  <defs><style>@keyframes id1{0%,100%{transform:translateY(0)}50%{transform:translateY(-8px)}}
@keyframes id2{0%,100%{transform:translateY(0)}50%{transform:translateY(-8px)}}
@keyframes id3{0%,100%{transform:translateY(0)}50%{transform:translateY(-8px)}}
@keyframes id4{0%,100%{transform:translateY(0)}50%{transform:translateY(-8px)}}</style></defs>
  <rect width="800" height="500" fill="#2C1810"/>
  <rect x="0" y="0" width="800" height="500" fill="#1a1a2e"/><rect x="0" y="340" width="800" height="160" fill="#2C3E50"/><rect x="376" y="100" width="48" height="12" fill="#FFD700"/><rect x="384" y="112" width="32" height="40" fill="#FFD700"/><rect x="368" y="112" width="16" height="16" fill="#FFD700"/><rect x="416" y="112" width="16" height="16" fill="#FFD700"/><rect x="388" y="152" width="24" height="16" fill="#FFD700"/><rect x="380" y="168" width="40" height="12" fill="#B8860B"/><rect x="308" y="80" width="8" height="8" fill="#FFD700"/><rect x="300" y="88" width="24" height="8" fill="#FFD700"/><rect x="304" y="96" width="16" height="8" fill="#FFD700"/><rect x="300" y="100" width="8" height="8" fill="#FFD700"/><rect x="316" y="100" width="8" height="8" fill="#FFD700"/><rect x="488" y="72" width="8" height="8" fill="#FFD700"/><rect x="480" y="80" width="24" height="8" fill="#FFD700"/><rect x="484" y="88" width="16" height="8" fill="#FFD700"/><rect x="480" y="92" width="8" height="8" fill="#FFD700"/><rect x="496" y="92" width="8" height="8" fill="#FFD700"/><rect x="288" y="160" width="8" height="8" fill="#FFD700"/><rect x="280" y="168" width="24" height="8" fill="#FFD700"/><rect x="284" y="176" width="16" height="8" fill="#FFD700"/><rect x="280" y="180" width="8" height="8" fill="#FFD700"/><rect x="296" y="180" width="8" height="8" fill="#FFD700"/><rect x="508" y="152" width="8" height="8" fill="#FFD700"/><rect x="500" y="160" width="24" height="8" fill="#FFD700"/><rect x="504" y="168" width="16" height="8" fill="#FFD700"/><rect x="500" y="172" width="8" height="8" fill="#FFD700"/><rect x="516" y="172" width="8" height="8" fill="#FFD700"/><rect x="80" y="60" width="8" height="8" fill="#E74C3C"/><rect x="180" y="40" width="8" height="8" fill="#3498DB"/><rect x="280" y="32" width="8" height="8" fill="#2ECC71"/><rect x="520" y="48" width="8" height="8" fill="#FFD700"/><rect x="620" y="72" width="8" height="8" fill="#E91E63"/><rect x="720" y="40" width="8" height="8" fill="#E74C3C"/><rect x="140" y="100" width="8" height="8" fill="#3498DB"/><rect x="660" y="88" width="8" height="8" fill="#2ECC71"/><g style="animation:id1 0.6s ease-in-out 0s infinite"><ellipse cx="140" cy="400" rx="20" ry="6" fill="rgba(0,0,0,0.2)"/><rect x="128" y="324" width="24" height="12" fill="#A0522D"/><rect x="128" y="336" width="24" height="16" fill="#8D5524"/><rect x="132" y="340" width="4" height="4" fill="#000000"/><rect x="144" y="340" width="4" height="4" fill="#000000"/><rect x="132" y="348" width="16" height="4" fill="#8B4513"/><rect x="124" y="352" width="32" height="24" fill="#E74C3C"/><rect x="116" y="344" width="8" height="12" fill="#E74C3C"/><rect x="112" y="332" width="8" height="16" fill="#8D5524"/><rect x="156" y="344" width="8" height="12" fill="#E74C3C"/><rect x="160" y="332" width="8" height="16" fill="#8D5524"/><rect x="128" y="376" width="12" height="20" fill="#2C3E50"/><rect x="140" y="376" width="12" height="20" fill="#2C3E50"/><rect x="128" y="396" width="12" height="4" fill="#1a1a1a"/><rect x="140" y="396" width="12" height="4" fill="#1a1a1a"/></g><g style="animation:id2 0.6s ease-in-out 0.1s infinite"><ellipse cx="320" cy="400" rx="20" ry="6" fill="rgba(0,0,0,0.2)"/><rect x="308" y="320" width="24" height="12" fill="#1a1a1a"/><rect x="308" y="332" width="24" height="16" fill="#C68642"/><rect x="312" y="336" width="4" height="4" fill="#000000"/><rect x="324" y="336" width="4" height="4" fill="#000000"/><rect x="316" y="344" width="8" height="4" fill="#C4956A"/><rect x="304" y="348" width="32" height="24" fill="#3498DB"/><rect x="300" y="352" width="8" height="16" fill="#3498DB"/><rect x="332" y="348" width="8" height="8" fill="#3498DB"/><rect x="336" y="336" width="8" height="16" fill="#3498DB"/><rect x="340" y="328" width="8" height="12" fill="#C68642"/><rect x="308" y="372" width="12" height="24" fill="#2C3E50"/><rect x="320" y="372" width="12" height="24" fill="#2C3E50"/><rect x="308" y="396" width="12" height="4" fill="#1a1a1a"/><rect x="320" y="396" width="12" height="4" fill="#1a1a1a"/></g><g style="animation:id3 0.6s ease-in-out 0.2s infinite"><ellipse cx="500" cy="400" rx="20" ry="6" fill="rgba(0,0,0,0.2)"/><rect x="488" y="324" width="24" height="12" fill="#3D2314"/><rect x="488" y="336" width="24" height="16" fill="#8D5524"/><rect x="492" y="340" width="4" height="4" fill="#000000"/><rect x="504" y="340" width="4" height="4" fill="#000000"/><rect x="492" y="348" width="16" height="4" fill="#8B4513"/><rect x="484" y="352" width="32" height="24" fill="#2ECC71"/><rect x="476" y="344" width="8" height="12" fill="#2ECC71"/><rect x="472" y="332" width="8" height="16" fill="#8D5524"/><rect x="516" y="344" width="8" height="12" fill="#2ECC71"/><rect x="520" y="332" width="8" height="16" fill="#8D5524"/><rect x="488" y="376" width="12" height="20" fill="#2C3E50"/><rect x="500" y="376" width="12" height="20" fill="#2C3E50"/><rect x="488" y="396" width="12" height="4" fill="#1a1a1a"/><rect x="500" y="396" width="12" height="4" fill="#1a1a1a"/></g><g style="animation:id4 0.6s ease-in-out 0.3s infinite"><ellipse cx="680" cy="400" rx="20" ry="6" fill="rgba(0,0,0,0.2)"/><rect x="668" y="324" width="24" height="12" fill="#1a1a1a"/><rect x="668" y="336" width="24" height="16" fill="#FFE0BD"/><rect x="672" y="340" width="4" height="4" fill="#000000"/><rect x="684" y="340" width="4" height="4" fill="#000000"/><rect x="672" y="348" width="16" height="4" fill="#8B4513"/><rect x="664" y="352" width="32" height="24" fill="#9B59B6"/><rect x="656" y="344" width="8" height="12" fill="#9B59B6"/><rect x="652" y="332" width="8" height="16" fill="#FFE0BD"/><rect x="696" y="344" width="8" height="12" fill="#9B59B6"/><rect x="700" y="332" width="8" height="16" fill="#FFE0BD"/><rect x="668" y="376" width="12" height="20" fill="#2C3E50"/><rect x="680" y="376" width="12" height="20" fill="#2C3E50"/><rect x="668" y="396" width="12" height="4" fill="#1a1a1a"/><rect x="680" y="396" width="12" height="4" fill="#1a1a1a"/></g><rect x="300" y="20" width="124" height="32" fill="#FFFFFF"/><rect x="308" y="52" width="8" height="8" fill="#FFFFFF"/><rect x="300" y="20" width="124" height="2" fill="#BDC3C7"/><rect x="300" y="50" width="124" height="2" fill="#BDC3C7"/><rect x="300" y="20" width="2" height="32" fill="#BDC3C7"/><rect x="422" y="20" width="2" height="32" fill="#BDC3C7"/><text x="312" y="42" fill="#000000" font-size="11.2" font-family="monospace" font-weight="bold">We did it!</text>
  <rect x="80" y="450" width="640" height="38" rx="6" fill="rgba(0,0,0,0.8)"/>
  <text x="400" y="475" text-anchor="middle" fill="#FFFFFF" font-size="16" font-family="monospace" font-weight="bold">The 24-Hour Log Hunt: A One-Liner That S</text>
</svg>