<?xml version="1.0" encoding="UTF-8"?>
<svg xmlns="http://www.w3.org/2000/svg" viewBox="0 0 800 500" width="800" height="500">
  <defs><style>@keyframes id1{0%,100%{transform:translateY(0)}50%{transform:translateY(-8px)}}
@keyframes id2{0%,100%{transform:translateY(0)}50%{transform:translateY(-4px)}}</style></defs>
  <rect width="800" height="500" fill="#2C1810"/>
  <rect x="0" y="0" width="800" height="500" fill="#1a1a2e"/><rect x="0" y="340" width="800" height="160" fill="#2C3E50"/><circle cx="400" cy="200" r="120" fill="#2C3E50"/><circle cx="400" cy="200" r="100" fill="#1a1a2e"/><rect x="392" y="120" width="16" height="72" fill="#2ECC71"/><text x="400" y="280" text-anchor="middle" fill="#2ECC71" font-size="12" font-family="monospace">FAST</text><rect x="144" y="120" width="16" height="16" fill="#F1C40F"/><rect x="136" y="136" width="16" height="16" fill="#F1C40F"/><rect x="128" y="152" width="32" height="8" fill="#F1C40F"/><rect x="136" y="160" width="16" height="16" fill="#F1C40F"/><rect x="128" y="176" width="16" height="16" fill="#F1C40F"/><rect x="664" y="140" width="16" height="16" fill="#F1C40F"/><rect x="656" y="156" width="16" height="16" fill="#F1C40F"/><rect x="648" y="172" width="32" height="8" fill="#F1C40F"/><rect x="656" y="180" width="16" height="16" fill="#F1C40F"/><rect x="648" y="196" width="16" height="16" fill="#F1C40F"/><g style="animation:id1 0.6s ease-in-out 0s infinite"><ellipse cx="200" cy="400" rx="20" ry="6" fill="rgba(0,0,0,0.2)"/><rect x="188" y="324" width="24" height="12" fill="#3D2314"/><rect x="188" y="336" width="24" height="16" fill="#EAC086"/><rect x="192" y="340" width="4" height="4" fill="#000000"/><rect x="204" y="340" width="4" height="4" fill="#000000"/><rect x="192" y="348" width="16" height="4" fill="#8B4513"/><rect x="184" y="352" width="32" height="24" fill="#2ECC71"/><rect x="176" y="344" width="8" height="12" fill="#2ECC71"/><rect x="172" y="332" width="8" height="16" fill="#EAC086"/><rect x="216" y="344" width="8" height="12" fill="#2ECC71"/><rect x="220" y="332" width="8" height="16" fill="#EAC086"/><rect x="188" y="376" width="12" height="20" fill="#2C3E50"/><rect x="200" y="376" width="12" height="20" fill="#2C3E50"/><rect x="188" y="396" width="12" height="4" fill="#1a1a1a"/><rect x="200" y="396" width="12" height="4" fill="#1a1a1a"/></g><g style="animation:id2 2s ease-in-out 0s infinite"><ellipse cx="620" cy="400" rx="20" ry="6" fill="rgba(0,0,0,0.2)"/><rect x="608" y="320" width="24" height="12" fill="#1a1a1a"/><rect x="608" y="332" width="24" height="16" fill="#8D5524"/><rect x="612" y="336" width="4" height="4" fill="#000000"/><rect x="624" y="336" width="4" height="4" fill="#000000"/><rect x="604" y="348" width="32" height="24" fill="#3498DB"/><rect x="600" y="352" width="8" height="16" fill="#3498DB"/><rect x="632" y="352" width="8" height="16" fill="#3498DB"/><rect x="600" y="368" width="8" height="4" fill="#8D5524"/><rect x="632" y="368" width="8" height="4" fill="#8D5524"/><rect x="608" y="372" width="12" height="24" fill="#2C3E50"/><rect x="620" y="372" width="12" height="24" fill="#2C3E50"/><rect x="608" y="396" width="12" height="4" fill="#1a1a1a"/><rect x="620" y="396" width="12" height="4" fill="#1a1a1a"/></g><rect x="540" y="200" width="74" height="32" fill="#FFFFFF"/><rect x="548" y="232" width="8" height="8" fill="#FFFFFF"/><rect x="540" y="200" width="74" height="2" fill="#BDC3C7"/><rect x="540" y="230" width="74" height="2" fill="#BDC3C7"/><rect x="540" y="200" width="2" height="32" fill="#BDC3C7"/><rect x="612" y="200" width="2" height="32" fill="#BDC3C7"/><text x="552" y="222" fill="#000000" font-size="11.2" font-family="monospace" font-weight="bold">10ms!</text>
  <rect x="80" y="450" width="640" height="38" rx="6" fill="rgba(0,0,0,0.8)"/>
  <text x="400" y="475" text-anchor="middle" fill="#FFFFFF" font-size="16" font-family="monospace" font-weight="bold">The 24-Hour Log Hunt: A One-Liner That S</text>
</svg>