<?xml version="1.0" encoding="UTF-8"?>
<svg xmlns="http://www.w3.org/2000/svg" viewBox="0 0 800 500" width="800" height="500">
  <defs><style>@keyframes id1{0%,100%{transform:translateY(0)}50%{transform:translateY(-4px)}}
@keyframes id2{0%,100%{transform:translateY(0)}50%{transform:translateY(-4px)}}</style></defs>
  <rect width="800" height="500" fill="#2C1810"/>
  <rect x="0" y="0" width="800" height="300" fill="#D4C4A8"/><rect x="0" y="288" width="800" height="12" fill="#B8A888"/><rect x="0" y="300" width="800" height="200" fill="#8B7355"/><rect x="0" y="300" width="2" height="200" fill="#7A6448"/><rect x="48" y="300" width="2" height="200" fill="#7A6448"/><rect x="96" y="300" width="2" height="200" fill="#7A6448"/><rect x="144" y="300" width="2" height="200" fill="#7A6448"/><rect x="192" y="300" width="2" height="200" fill="#7A6448"/><rect x="240" y="300" width="2" height="200" fill="#7A6448"/><rect x="288" y="300" width="2" height="200" fill="#7A6448"/><rect x="336" y="300" width="2" height="200" fill="#7A6448"/><rect x="384" y="300" width="2" height="200" fill="#7A6448"/><rect x="432" y="300" width="2" height="200" fill="#7A6448"/><rect x="480" y="300" width="2" height="200" fill="#7A6448"/><rect x="528" y="300" width="2" height="200" fill="#7A6448"/><rect x="576" y="300" width="2" height="200" fill="#7A6448"/><rect x="624" y="300" width="2" height="200" fill="#7A6448"/><rect x="672" y="300" width="2" height="200" fill="#7A6448"/><rect x="720" y="300" width="2" height="200" fill="#7A6448"/><rect x="768" y="300" width="2" height="200" fill="#7A6448"/><rect x="20" y="40" width="180" height="104" fill="#FFFFFF"/><rect x="20" y="40" width="180" height="4" fill="#BDC3C7"/><rect x="20" y="140" width="180" height="4" fill="#BDC3C7"/><rect x="20" y="40" width="4" height="104" fill="#BDC3C7"/><rect x="196" y="40" width="4" height="104" fill="#BDC3C7"/><rect x="32" y="56" width="90" height="8" fill="#3498DB"/><rect x="32" y="72" width="125.99999999999999" height="8" fill="#E74C3C"/><rect x="32" y="88" width="72" height="8" fill="#2ECC71"/><rect x="32" y="104" width="108" height="8" fill="#3498DB"/><g style="animation:id1 2s ease-in-out 0s infinite"><ellipse cx="100" cy="400" rx="20" ry="6" fill="rgba(0,0,0,0.2)"/><rect x="88" y="320" width="24" height="12" fill="#1a1a1a"/><rect x="88" y="332" width="24" height="16" fill="#FFCD94"/><rect x="92" y="336" width="4" height="4" fill="#000000"/><rect x="104" y="336" width="4" height="4" fill="#000000"/><rect x="84" y="348" width="32" height="24" fill="#E74C3C"/><rect x="80" y="352" width="8" height="16" fill="#E74C3C"/><rect x="112" y="352" width="8" height="16" fill="#E74C3C"/><rect x="80" y="368" width="8" height="4" fill="#FFCD94"/><rect x="112" y="368" width="8" height="4" fill="#FFCD94"/><rect x="88" y="372" width="12" height="24" fill="#2C3E50"/><rect x="100" y="372" width="12" height="24" fill="#2C3E50"/><rect x="88" y="396" width="12" height="4" fill="#1a1a1a"/><rect x="100" y="396" width="12" height="4" fill="#1a1a1a"/></g><rect x="280" y="368" width="280" height="8" fill="#A0522D"/><rect x="280" y="376" width="280" height="4" fill="#8B4513"/><rect x="288" y="380" width="264" height="16" fill="#8B4513"/><rect x="292" y="396" width="8" height="12" fill="#8B4513"/><rect x="540" y="396" width="8" height="12" fill="#8B4513"/><rect x="340" y="352" width="40" height="8" fill="#3498DB"/><rect x="344" y="360" width="32" height="24" fill="#3498DB"/><rect x="340" y="384" width="40" height="8" fill="#3498DB"/><rect x="344" y="392" width="8" height="16" fill="#95A5A6"/><rect x="368" y="392" width="8" height="16" fill="#95A5A6"/><g ><ellipse cx="360" cy="400" rx="20" ry="6" fill="rgba(0,0,0,0.2)"/><rect x="348" y="344" width="24" height="12" fill="#1a1a1a"/><rect x="348" y="356" width="24" height="16" fill="#FFCD94"/><rect x="352" y="360" width="4" height="4" fill="#000000"/><rect x="364" y="360" width="4" height="4" fill="#000000"/><rect x="344" y="372" width="32" height="20" fill="#3498DB"/><rect x="340" y="380" width="8" height="12" fill="#3498DB"/><rect x="372" y="380" width="8" height="12" fill="#3498DB"/><rect x="344" y="392" width="32" height="8" fill="#2C3E50"/><rect x="340" y="396" width="12" height="8" fill="#1a1a1a"/><rect x="368" y="396" width="12" height="8" fill="#1a1a1a"/></g><rect x="500" y="352" width="40" height="8" fill="#2ECC71"/><rect x="504" y="360" width="32" height="24" fill="#2ECC71"/><rect x="500" y="384" width="40" height="8" fill="#2ECC71"/><rect x="504" y="392" width="8" height="16" fill="#95A5A6"/><rect x="528" y="392" width="8" height="16" fill="#95A5A6"/><g style="animation:id2 2s ease-in-out 0.2s infinite"><ellipse cx="520" cy="400" rx="20" ry="6" fill="rgba(0,0,0,0.2)"/><rect x="508" y="344" width="24" height="12" fill="#A0522D"/><rect x="508" y="356" width="24" height="16" fill="#FFE0BD"/><rect x="512" y="360" width="4" height="4" fill="#000000"/><rect x="524" y="360" width="4" height="4" fill="#000000"/><rect x="504" y="372" width="32" height="20" fill="#2ECC71"/><rect x="500" y="380" width="8" height="12" fill="#2ECC71"/><rect x="532" y="380" width="8" height="12" fill="#2ECC71"/><rect x="504" y="392" width="32" height="8" fill="#2C3E50"/><rect x="500" y="396" width="12" height="8" fill="#1a1a1a"/><rect x="528" y="396" width="12" height="8" fill="#1a1a1a"/></g><rect x="312" y="328" width="72" height="32" fill="#7F8C8D"/><rect x="316" y="332" width="64" height="24" fill="#4FC3F7"/><rect x="320" y="336" width="24" height="4" fill="#FFF"/><rect x="320" y="344" width="40" height="4" fill="#AED581"/><rect x="308" y="360" width="80" height="12" fill="#95A5A6"/><rect x="472" y="328" width="72" height="32" fill="#7F8C8D"/><rect x="476" y="332" width="64" height="24" fill="#4FC3F7"/><rect x="480" y="336" width="24" height="4" fill="#FFF"/><rect x="480" y="344" width="40" height="4" fill="#AED581"/><rect x="468" y="360" width="80" height="12" fill="#95A5A6"/><rect x="140" y="112" width="104" height="32" fill="#FFFFFF"/><rect x="148" y="144" width="8" height="8" fill="#FFFFFF"/><rect x="140" y="112" width="104" height="2" fill="#BDC3C7"/><rect x="140" y="142" width="104" height="2" fill="#BDC3C7"/><rect x="140" y="112" width="2" height="32" fill="#BDC3C7"/><rect x="242" y="112" width="2" height="32" fill="#BDC3C7"/><text x="152" y="134" fill="#000000" font-size="11.2" font-family="monospace" font-weight="bold">Q3 Goals</text><rect x="708" y="336" width="24" height="32" fill="#27AE60"/><rect x="704" y="344" width="12" height="20" fill="#1E8449"/><rect x="724" y="348" width="12" height="16" fill="#1E8449"/><rect x="712" y="368" width="16" height="8" fill="#1E8449"/><rect x="708" y="376" width="24" height="24" fill="#D35400"/><rect x="712" y="376" width="16" height="4" fill="#3E2723"/>
  <rect x="80" y="450" width="640" height="38" rx="6" fill="rgba(0,0,0,0.8)"/>
  <text x="400" y="475" text-anchor="middle" fill="#FFFFFF" font-size="16" font-family="monospace" font-weight="bold">When Routes Become Recipes: A DP Journey</text>
</svg>