<?xml version="1.0" encoding="UTF-8"?>
<svg xmlns="http://www.w3.org/2000/svg" viewBox="0 0 800 500" width="800" height="500">
  <defs><style>@keyframes id1{0%,100%{transform:translateY(0)}50%{transform:translateY(-4px)}}
@keyframes id2{0%,100%{transform:translateY(0)}50%{transform:translateY(-4px)}}</style></defs>
  <rect width="800" height="500" fill="#2C1810"/>
  <rect x="0" y="0" width="800" height="300" fill="#D4C4A8"/><rect x="0" y="288" width="800" height="12" fill="#B8A888"/><rect x="0" y="300" width="800" height="200" fill="#8B7355"/><rect x="0" y="300" width="2" height="200" fill="#7A6448"/><rect x="48" y="300" width="2" height="200" fill="#7A6448"/><rect x="96" y="300" width="2" height="200" fill="#7A6448"/><rect x="144" y="300" width="2" height="200" fill="#7A6448"/><rect x="192" y="300" width="2" height="200" fill="#7A6448"/><rect x="240" y="300" width="2" height="200" fill="#7A6448"/><rect x="288" y="300" width="2" height="200" fill="#7A6448"/><rect x="336" y="300" width="2" height="200" fill="#7A6448"/><rect x="384" y="300" width="2" height="200" fill="#7A6448"/><rect x="432" y="300" width="2" height="200" fill="#7A6448"/><rect x="480" y="300" width="2" height="200" fill="#7A6448"/><rect x="528" y="300" width="2" height="200" fill="#7A6448"/><rect x="576" y="300" width="2" height="200" fill="#7A6448"/><rect x="624" y="300" width="2" height="200" fill="#7A6448"/><rect x="672" y="300" width="2" height="200" fill="#7A6448"/><rect x="720" y="300" width="2" height="200" fill="#7A6448"/><rect x="768" y="300" width="2" height="200" fill="#7A6448"/><rect x="20" y="32" width="200" height="112" fill="#FFFFFF"/><rect x="20" y="32" width="200" height="4" fill="#BDC3C7"/><rect x="20" y="140" width="200" height="4" fill="#BDC3C7"/><rect x="20" y="32" width="4" height="112" fill="#BDC3C7"/><rect x="216" y="32" width="4" height="112" fill="#BDC3C7"/><rect x="32" y="48" width="100" height="8" fill="#3498DB"/><rect x="32" y="64" width="140" height="8" fill="#E74C3C"/><rect x="32" y="80" width="80" height="8" fill="#2ECC71"/><rect x="32" y="96" width="120" height="8" fill="#3498DB"/><rect x="40" y="48" width="32" height="24" fill="#FFEB3B"/><rect x="88" y="40" width="32" height="24" fill="#FF7043"/><rect x="136" y="56" width="32" height="24" fill="#4FC3F7"/><rect x="48" y="88" width="32" height="24" fill="#AED581"/><rect x="104" y="80" width="32" height="24" fill="#F48FB1"/><rect x="160" y="96" width="32" height="24" fill="#CE93D8"/><rect x="600" y="48" width="32" height="40" fill="#FFEB3B"/><rect x="604" y="88" width="24" height="12" fill="#BDC3C7"/><rect x="584" y="32" width="8" height="8" fill="#FFF"/><rect x="640" y="40" width="8" height="8" fill="#FFF"/><g style="animation:id1 2s ease-in-out 0s infinite"><ellipse cx="300" cy="400" rx="20" ry="6" fill="rgba(0,0,0,0.2)"/><rect x="288" y="320" width="24" height="12" fill="#A0522D"/><rect x="288" y="332" width="24" height="16" fill="#FFE0BD"/><rect x="292" y="336" width="4" height="4" fill="#000000"/><rect x="304" y="336" width="4" height="4" fill="#000000"/><rect x="284" y="348" width="32" height="24" fill="#E74C3C"/><rect x="280" y="352" width="8" height="16" fill="#E74C3C"/><rect x="312" y="352" width="8" height="16" fill="#E74C3C"/><rect x="280" y="368" width="8" height="4" fill="#FFE0BD"/><rect x="312" y="368" width="8" height="4" fill="#FFE0BD"/><rect x="288" y="372" width="12" height="24" fill="#2C3E50"/><rect x="300" y="372" width="12" height="24" fill="#2C3E50"/><rect x="288" y="396" width="12" height="4" fill="#1a1a1a"/><rect x="300" y="396" width="12" height="4" fill="#1a1a1a"/></g><g ><ellipse cx="480" cy="400" rx="20" ry="6" fill="rgba(0,0,0,0.2)"/><rect x="468" y="320" width="24" height="12" fill="#A0522D"/><rect x="468" y="332" width="24" height="16" fill="#FFE0BD"/><rect x="472" y="336" width="4" height="4" fill="#000000"/><rect x="484" y="336" width="4" height="4" fill="#000000"/><rect x="464" y="348" width="32" height="24" fill="#3498DB"/><rect x="460" y="352" width="8" height="16" fill="#3498DB"/><rect x="492" y="352" width="8" height="16" fill="#3498DB"/><rect x="460" y="368" width="8" height="4" fill="#FFE0BD"/><rect x="492" y="368" width="8" height="4" fill="#FFE0BD"/><rect x="468" y="372" width="12" height="24" fill="#2C3E50"/><rect x="480" y="372" width="12" height="24" fill="#2C3E50"/><rect x="468" y="396" width="12" height="4" fill="#1a1a1a"/><rect x="480" y="396" width="12" height="4" fill="#1a1a1a"/></g><g style="animation:id2 2s ease-in-out 0.4s infinite"><ellipse cx="660" cy="400" rx="20" ry="6" fill="rgba(0,0,0,0.2)"/><rect x="648" y="320" width="24" height="12" fill="#1a1a1a"/><rect x="648" y="332" width="24" height="16" fill="#FFCD94"/><rect x="652" y="336" width="4" height="4" fill="#000000"/><rect x="664" y="336" width="4" height="4" fill="#000000"/><rect x="656" y="344" width="8" height="4" fill="#C4956A"/><rect x="644" y="348" width="32" height="24" fill="#2ECC71"/><rect x="640" y="352" width="8" height="16" fill="#2ECC71"/><rect x="672" y="348" width="8" height="8" fill="#2ECC71"/><rect x="676" y="336" width="8" height="16" fill="#2ECC71"/><rect x="680" y="328" width="8" height="12" fill="#FFCD94"/><rect x="648" y="372" width="12" height="24" fill="#2C3E50"/><rect x="660" y="372" width="12" height="24" fill="#2C3E50"/><rect x="648" y="396" width="12" height="4" fill="#1a1a1a"/><rect x="660" y="396" width="12" height="4" fill="#1a1a1a"/></g><rect x="240" y="192" width="124" height="32" fill="#FFFFFF"/><rect x="248" y="224" width="8" height="8" fill="#FFFFFF"/><rect x="240" y="192" width="124" height="2" fill="#BDC3C7"/><rect x="240" y="222" width="124" height="2" fill="#BDC3C7"/><rect x="240" y="192" width="2" height="32" fill="#BDC3C7"/><rect x="362" y="192" width="2" height="32" fill="#BDC3C7"/><text x="252" y="214" fill="#000000" font-size="11.2" font-family="monospace" font-weight="bold">What if...</text><rect x="600" y="180" width="64" height="32" fill="#FFFFFF"/><rect x="608" y="212" width="8" height="8" fill="#FFFFFF"/><rect x="600" y="180" width="64" height="2" fill="#BDC3C7"/><rect x="600" y="210" width="64" height="2" fill="#BDC3C7"/><rect x="600" y="180" width="2" height="32" fill="#BDC3C7"/><rect x="662" y="180" width="2" height="32" fill="#BDC3C7"/><text x="612" y="202" fill="#000000" font-size="11.2" font-family="monospace" font-weight="bold">Yes!</text>
  <rect x="80" y="450" width="640" height="38" rx="6" fill="rgba(0,0,0,0.8)"/>
  <text x="400" y="475" text-anchor="middle" fill="#FFFFFF" font-size="16" font-family="monospace" font-weight="bold">The Parallel Revelation: How Self-Attent</text>
</svg>