<?xml version="1.0" encoding="UTF-8"?>
<svg xmlns="http://www.w3.org/2000/svg" viewBox="0 0 800 500" width="800" height="500">
  <defs><style>@keyframes id1{0%,100%{transform:translateY(0)}50%{transform:translateY(-8px)}}
@keyframes id2{0%,100%{transform:translateY(0)}50%{transform:translateY(-8px)}}</style></defs>
  <rect width="800" height="500" fill="#2C1810"/>
  <rect x="0" y="0" width="800" height="500" fill="#1a1a2e"/><rect x="0" y="340" width="800" height="160" fill="#2C3E50"/><rect x="376" y="80" width="32" height="72" fill="#ECF0F1"/><rect x="380" y="96" width="24" height="16" fill="#3498DB"/><rect x="380" y="68" width="24" height="12" fill="#E74C3C"/><rect x="384" y="60" width="16" height="8" fill="#E74C3C"/><rect x="360" y="136" width="16" height="24" fill="#E74C3C"/><rect x="408" y="136" width="16" height="24" fill="#E74C3C"/><rect x="380" y="152" width="8" height="16" fill="#F1C40F"/><rect x="396" y="152" width="8" height="16" fill="#F1C40F"/><rect x="384" y="160" width="16" height="12" fill="#E74C3C"/><rect x="128" y="60" width="8" height="8" fill="#FFD700"/><rect x="120" y="68" width="24" height="8" fill="#FFD700"/><rect x="124" y="76" width="16" height="8" fill="#FFD700"/><rect x="120" y="80" width="8" height="8" fill="#FFD700"/><rect x="136" y="80" width="8" height="8" fill="#FFD700"/><rect x="248" y="100" width="8" height="8" fill="#FFD700"/><rect x="240" y="108" width="24" height="8" fill="#FFD700"/><rect x="244" y="116" width="16" height="8" fill="#FFD700"/><rect x="240" y="120" width="8" height="8" fill="#FFD700"/><rect x="256" y="120" width="8" height="8" fill="#FFD700"/><rect x="528" y="40" width="8" height="8" fill="#FFD700"/><rect x="520" y="48" width="24" height="8" fill="#FFD700"/><rect x="524" y="56" width="16" height="8" fill="#FFD700"/><rect x="520" y="60" width="8" height="8" fill="#FFD700"/><rect x="536" y="60" width="8" height="8" fill="#FFD700"/><rect x="648" y="120" width="8" height="8" fill="#FFD700"/><rect x="640" y="128" width="24" height="8" fill="#FFD700"/><rect x="644" y="136" width="16" height="8" fill="#FFD700"/><rect x="640" y="140" width="8" height="8" fill="#FFD700"/><rect x="656" y="140" width="8" height="8" fill="#FFD700"/><ellipse cx="585.6" cy="219.2" rx="25.6" ry="19.200000000000003" fill="#ECF0F1"/><ellipse cx="617.6" cy="225.6" rx="32" ry="22.400000000000002" fill="#ECF0F1"/><ellipse cx="656" cy="219.2" rx="25.6" ry="19.200000000000003" fill="#ECF0F1"/><g style="animation:id1 0.6s ease-in-out 0s infinite"><ellipse cx="160" cy="400" rx="20" ry="6" fill="rgba(0,0,0,0.2)"/><rect x="148" y="324" width="24" height="12" fill="#8B6914"/><rect x="148" y="336" width="24" height="16" fill="#FFE0BD"/><rect x="152" y="340" width="4" height="4" fill="#000000"/><rect x="164" y="340" width="4" height="4" fill="#000000"/><rect x="152" y="348" width="16" height="4" fill="#8B4513"/><rect x="144" y="352" width="32" height="24" fill="#E74C3C"/><rect x="136" y="344" width="8" height="12" fill="#E74C3C"/><rect x="132" y="332" width="8" height="16" fill="#FFE0BD"/><rect x="176" y="344" width="8" height="12" fill="#E74C3C"/><rect x="180" y="332" width="8" height="16" fill="#FFE0BD"/><rect x="148" y="376" width="12" height="20" fill="#2C3E50"/><rect x="160" y="376" width="12" height="20" fill="#2C3E50"/><rect x="148" y="396" width="12" height="4" fill="#1a1a1a"/><rect x="160" y="396" width="12" height="4" fill="#1a1a1a"/></g><g style="animation:id2 0.6s ease-in-out 0.2s infinite"><ellipse cx="680" cy="400" rx="20" ry="6" fill="rgba(0,0,0,0.2)"/><rect x="668" y="320" width="24" height="12" fill="#1a1a1a"/><rect x="668" y="332" width="24" height="16" fill="#8D5524"/><rect x="672" y="336" width="4" height="4" fill="#000000"/><rect x="684" y="336" width="4" height="4" fill="#000000"/><rect x="676" y="344" width="8" height="4" fill="#C4956A"/><rect x="664" y="348" width="32" height="24" fill="#3498DB"/><rect x="660" y="352" width="8" height="16" fill="#3498DB"/><rect x="692" y="348" width="8" height="8" fill="#3498DB"/><rect x="696" y="336" width="8" height="16" fill="#3498DB"/><rect x="700" y="328" width="8" height="12" fill="#8D5524"/><rect x="668" y="372" width="12" height="24" fill="#2C3E50"/><rect x="680" y="372" width="12" height="24" fill="#2C3E50"/><rect x="668" y="396" width="12" height="4" fill="#1a1a1a"/><rect x="680" y="396" width="12" height="4" fill="#1a1a1a"/></g><rect x="300" y="20" width="114" height="32" fill="#FFFFFF"/><rect x="308" y="52" width="8" height="8" fill="#FFFFFF"/><rect x="300" y="20" width="114" height="2" fill="#BDC3C7"/><rect x="300" y="50" width="114" height="2" fill="#BDC3C7"/><rect x="300" y="20" width="2" height="32" fill="#BDC3C7"/><rect x="412" y="20" width="2" height="32" fill="#BDC3C7"/><text x="312" y="42" fill="#000000" font-size="11.2" font-family="monospace" font-weight="bold">Launched!</text>
  <rect x="80" y="450" width="640" height="38" rx="6" fill="rgba(0,0,0,0.8)"/>
  <text x="400" y="475" text-anchor="middle" fill="#FFFFFF" font-size="16" font-family="monospace" font-weight="bold">The Etsy Rule: How Feature Flags and Can</text>
</svg>