<?xml version="1.0" encoding="UTF-8"?>
<svg xmlns="http://www.w3.org/2000/svg" viewBox="0 0 800 500" width="800" height="500">
  <defs><style>@keyframes id1{0%,100%{transform:translateY(0)}50%{transform:translateY(-4px)}}
@keyframes id2{0%,100%{transform:translateY(0)}50%{transform:translateY(-4px)}}</style></defs>
  <rect width="800" height="500" fill="#2C1810"/>
  <rect x="0" y="0" width="800" height="300" fill="#D4C4A8"/><rect x="0" y="288" width="800" height="12" fill="#B8A888"/><rect x="0" y="300" width="800" height="200" fill="#8B7355"/><rect x="0" y="300" width="2" height="200" fill="#7A6448"/><rect x="48" y="300" width="2" height="200" fill="#7A6448"/><rect x="96" y="300" width="2" height="200" fill="#7A6448"/><rect x="144" y="300" width="2" height="200" fill="#7A6448"/><rect x="192" y="300" width="2" height="200" fill="#7A6448"/><rect x="240" y="300" width="2" height="200" fill="#7A6448"/><rect x="288" y="300" width="2" height="200" fill="#7A6448"/><rect x="336" y="300" width="2" height="200" fill="#7A6448"/><rect x="384" y="300" width="2" height="200" fill="#7A6448"/><rect x="432" y="300" width="2" height="200" fill="#7A6448"/><rect x="480" y="300" width="2" height="200" fill="#7A6448"/><rect x="528" y="300" width="2" height="200" fill="#7A6448"/><rect x="576" y="300" width="2" height="200" fill="#7A6448"/><rect x="624" y="300" width="2" height="200" fill="#7A6448"/><rect x="672" y="300" width="2" height="200" fill="#7A6448"/><rect x="720" y="300" width="2" height="200" fill="#7A6448"/><rect x="768" y="300" width="2" height="200" fill="#7A6448"/><rect x="40" y="368" width="220" height="8" fill="#A0522D"/><rect x="40" y="376" width="220" height="4" fill="#8B4513"/><rect x="48" y="380" width="204" height="16" fill="#8B4513"/><rect x="52" y="396" width="8" height="12" fill="#8B4513"/><rect x="240" y="396" width="8" height="12" fill="#8B4513"/><rect x="60" y="296" width="88" height="56" fill="#7F8C8D"/><rect x="64" y="300" width="80" height="48" fill="#000000"/><rect x="68" y="304" width="72" height="40" fill="#4FC3F7"/><rect x="72" y="312" width="32" height="4" fill="#FFF"/><rect x="72" y="320" width="48" height="4" fill="#AED581"/><rect x="72" y="328" width="24" height="4" fill="#FFB74D"/><rect x="72" y="336" width="40" height="4" fill="#4FC3F7"/><rect x="96" y="352" width="16" height="8" fill="#95A5A6"/><rect x="88" y="360" width="32" height="8" fill="#7F8C8D"/><rect x="160" y="296" width="88" height="56" fill="#7F8C8D"/><rect x="164" y="300" width="80" height="48" fill="#000000"/><rect x="168" y="304" width="72" height="40" fill="#4FC3F7"/><rect x="172" y="312" width="32" height="4" fill="#FFF"/><rect x="172" y="320" width="48" height="4" fill="#AED581"/><rect x="172" y="328" width="24" height="4" fill="#FFB74D"/><rect x="172" y="336" width="40" height="4" fill="#4FC3F7"/><rect x="196" y="352" width="16" height="8" fill="#95A5A6"/><rect x="188" y="360" width="32" height="8" fill="#7F8C8D"/><rect x="128" y="352" width="40" height="8" fill="#1ABC9C"/><rect x="132" y="360" width="32" height="24" fill="#1ABC9C"/><rect x="128" y="384" width="40" height="8" fill="#1ABC9C"/><rect x="132" y="392" width="8" height="16" fill="#95A5A6"/><rect x="156" y="392" width="8" height="16" fill="#95A5A6"/><g style="animation:id1 2s ease-in-out 0s infinite"><ellipse cx="152" cy="400" rx="20" ry="6" fill="rgba(0,0,0,0.2)"/><rect x="140" y="344" width="24" height="12" fill="#D4A84B"/><rect x="140" y="356" width="24" height="16" fill="#8D5524"/><rect x="144" y="360" width="4" height="4" fill="#000000"/><rect x="156" y="360" width="4" height="4" fill="#000000"/><rect x="136" y="372" width="32" height="20" fill="#1ABC9C"/><rect x="132" y="380" width="8" height="12" fill="#1ABC9C"/><rect x="164" y="380" width="8" height="12" fill="#1ABC9C"/><rect x="136" y="392" width="32" height="8" fill="#2C3E50"/><rect x="132" y="396" width="12" height="8" fill="#1a1a1a"/><rect x="160" y="396" width="12" height="8" fill="#1a1a1a"/></g><rect x="360" y="60" width="140" height="112" fill="#1a1a2e"/><rect x="368" y="72" width="48" height="4" fill="#AED581"/><rect x="368" y="84" width="80" height="4" fill="#4FC3F7"/><rect x="368" y="96" width="32" height="4" fill="#FFB74D"/><rect x="368" y="108" width="64" height="4" fill="#F48FB1"/><rect x="368" y="120" width="40" height="4" fill="#AED581"/><rect x="368" y="132" width="72" height="4" fill="#4FC3F7"/><g style="animation:id2 2s ease-in-out 0.5s infinite"><ellipse cx="640" cy="400" rx="20" ry="6" fill="rgba(0,0,0,0.2)"/><rect x="628" y="320" width="24" height="12" fill="#A0522D"/><rect x="628" y="332" width="24" height="16" fill="#FFCD94"/><rect x="632" y="336" width="4" height="4" fill="#000000"/><rect x="644" y="336" width="4" height="4" fill="#000000"/><rect x="624" y="348" width="32" height="24" fill="#E74C3C"/><rect x="620" y="352" width="8" height="16" fill="#E74C3C"/><rect x="652" y="352" width="8" height="16" fill="#E74C3C"/><rect x="620" y="368" width="8" height="4" fill="#FFCD94"/><rect x="652" y="368" width="8" height="4" fill="#FFCD94"/><rect x="628" y="372" width="12" height="24" fill="#2C3E50"/><rect x="640" y="372" width="12" height="24" fill="#2C3E50"/><rect x="628" y="396" width="12" height="4" fill="#1a1a1a"/><rect x="640" y="396" width="12" height="4" fill="#1a1a1a"/></g><rect x="580" y="208" width="74" height="32" fill="#FFFFFF"/><rect x="588" y="240" width="8" height="8" fill="#FFFFFF"/><rect x="580" y="208" width="74" height="2" fill="#BDC3C7"/><rect x="580" y="238" width="74" height="2" fill="#BDC3C7"/><rect x="580" y="208" width="2" height="32" fill="#BDC3C7"/><rect x="652" y="208" width="2" height="32" fill="#BDC3C7"/><text x="592" y="230" fill="#000000" font-size="11.2" font-family="monospace" font-weight="bold">LGTM!</text><rect x="728" y="336" width="24" height="32" fill="#27AE60"/><rect x="724" y="344" width="12" height="20" fill="#1E8449"/><rect x="744" y="348" width="12" height="16" fill="#1E8449"/><rect x="732" y="368" width="16" height="8" fill="#1E8449"/><rect x="728" y="376" width="24" height="24" fill="#D35400"/><rect x="732" y="376" width="16" height="4" fill="#3E2723"/>
  <rect x="80" y="450" width="640" height="38" rx="6" fill="rgba(0,0,0,0.8)"/>
  <text x="400" y="475" text-anchor="middle" fill="#FFFFFF" font-size="16" font-family="monospace" font-weight="bold">Drift, Disrupted: How a Centralized Plat</text>
</svg>