<?xml version="1.0" encoding="UTF-8"?>
<svg xmlns="http://www.w3.org/2000/svg" viewBox="0 0 800 500" width="800" height="500">
  <defs><style>@keyframes id1{0%,100%{transform:translateY(0)}50%{transform:translateY(-4px)}}
@keyframes id2{0%,100%{transform:translateY(0)}50%{transform:translateY(-8px)}}</style></defs>
  <rect width="800" height="500" fill="#2C1810"/>
  <rect x="0" y="0" width="800" height="300" fill="#D4C4A8"/><rect x="0" y="288" width="800" height="12" fill="#B8A888"/><rect x="0" y="300" width="800" height="200" fill="#8B7355"/><rect x="0" y="300" width="2" height="200" fill="#7A6448"/><rect x="48" y="300" width="2" height="200" fill="#7A6448"/><rect x="96" y="300" width="2" height="200" fill="#7A6448"/><rect x="144" y="300" width="2" height="200" fill="#7A6448"/><rect x="192" y="300" width="2" height="200" fill="#7A6448"/><rect x="240" y="300" width="2" height="200" fill="#7A6448"/><rect x="288" y="300" width="2" height="200" fill="#7A6448"/><rect x="336" y="300" width="2" height="200" fill="#7A6448"/><rect x="384" y="300" width="2" height="200" fill="#7A6448"/><rect x="432" y="300" width="2" height="200" fill="#7A6448"/><rect x="480" y="300" width="2" height="200" fill="#7A6448"/><rect x="528" y="300" width="2" height="200" fill="#7A6448"/><rect x="576" y="300" width="2" height="200" fill="#7A6448"/><rect x="624" y="300" width="2" height="200" fill="#7A6448"/><rect x="672" y="300" width="2" height="200" fill="#7A6448"/><rect x="720" y="300" width="2" height="200" fill="#7A6448"/><rect x="768" y="300" width="2" height="200" fill="#7A6448"/><rect x="40" y="60" width="200" height="140" fill="#1a1a2e"/><rect x="48" y="72" width="184" height="12" fill="#2C3E50"/><text x="140" y="84" text-anchor="middle" fill="#FFF" font-size="8" font-family="monospace">Test Results</text><rect x="60" y="124" width="8" height="16" fill="#2ECC71"/><rect x="68" y="132" width="8" height="16" fill="#2ECC71"/><rect x="76" y="124" width="8" height="16" fill="#2ECC71"/><rect x="84" y="116" width="8" height="16" fill="#2ECC71"/><rect x="92" y="108" width="8" height="16" fill="#2ECC71"/><rect x="100" y="100" width="8" height="16" fill="#2ECC71"/><text x="128" y="124" fill="#2ECC71" font-size="8" font-family="monospace">✓ 42 passed</text><rect x="60" y="164" width="8" height="16" fill="#2ECC71"/><rect x="68" y="172" width="8" height="16" fill="#2ECC71"/><rect x="76" y="164" width="8" height="16" fill="#2ECC71"/><rect x="84" y="156" width="8" height="16" fill="#2ECC71"/><rect x="92" y="148" width="8" height="16" fill="#2ECC71"/><rect x="100" y="140" width="8" height="16" fill="#2ECC71"/><text x="128" y="164" fill="#2ECC71" font-size="8" font-family="monospace">✓ 0 failed</text><rect x="320" y="368" width="180" height="8" fill="#A0522D"/><rect x="320" y="376" width="180" height="4" fill="#8B4513"/><rect x="328" y="380" width="164" height="16" fill="#8B4513"/><rect x="332" y="396" width="8" height="12" fill="#8B4513"/><rect x="480" y="396" width="8" height="12" fill="#8B4513"/><rect x="392" y="352" width="40" height="8" fill="#2ECC71"/><rect x="396" y="360" width="32" height="24" fill="#2ECC71"/><rect x="392" y="384" width="40" height="8" fill="#2ECC71"/><rect x="396" y="392" width="8" height="16" fill="#95A5A6"/><rect x="420" y="392" width="8" height="16" fill="#95A5A6"/><rect x="352" y="296" width="88" height="56" fill="#7F8C8D"/><rect x="356" y="300" width="80" height="48" fill="#000000"/><rect x="360" y="304" width="72" height="40" fill="#4FC3F7"/><rect x="364" y="312" width="32" height="4" fill="#FFF"/><rect x="364" y="320" width="48" height="4" fill="#AED581"/><rect x="364" y="328" width="24" height="4" fill="#FFB74D"/><rect x="364" y="336" width="40" height="4" fill="#4FC3F7"/><rect x="388" y="352" width="16" height="8" fill="#95A5A6"/><rect x="380" y="360" width="32" height="8" fill="#7F8C8D"/><g style="animation:id1 2s ease-in-out 0s infinite"><ellipse cx="412" cy="400" rx="20" ry="6" fill="rgba(0,0,0,0.2)"/><rect x="400" y="344" width="24" height="12" fill="#8B6914"/><rect x="400" y="356" width="24" height="16" fill="#EAC086"/><rect x="404" y="360" width="4" height="4" fill="#000000"/><rect x="416" y="360" width="4" height="4" fill="#000000"/><rect x="396" y="372" width="32" height="20" fill="#2ECC71"/><rect x="392" y="380" width="8" height="12" fill="#2ECC71"/><rect x="424" y="380" width="8" height="12" fill="#2ECC71"/><rect x="396" y="392" width="32" height="8" fill="#2C3E50"/><rect x="392" y="396" width="12" height="8" fill="#1a1a1a"/><rect x="420" y="396" width="12" height="8" fill="#1a1a1a"/></g><g style="animation:id2 0.6s ease-in-out 0s infinite"><ellipse cx="660" cy="400" rx="20" ry="6" fill="rgba(0,0,0,0.2)"/><rect x="648" y="324" width="24" height="12" fill="#A0522D"/><rect x="648" y="336" width="24" height="16" fill="#FFCD94"/><rect x="652" y="340" width="4" height="4" fill="#000000"/><rect x="664" y="340" width="4" height="4" fill="#000000"/><rect x="652" y="348" width="16" height="4" fill="#8B4513"/><rect x="644" y="352" width="32" height="24" fill="#3498DB"/><rect x="636" y="344" width="8" height="12" fill="#3498DB"/><rect x="632" y="332" width="8" height="16" fill="#FFCD94"/><rect x="676" y="344" width="8" height="12" fill="#3498DB"/><rect x="680" y="332" width="8" height="16" fill="#FFCD94"/><rect x="648" y="376" width="12" height="20" fill="#2C3E50"/><rect x="660" y="376" width="12" height="20" fill="#2C3E50"/><rect x="648" y="396" width="12" height="4" fill="#1a1a1a"/><rect x="660" y="396" width="12" height="4" fill="#1a1a1a"/></g>
  <rect x="80" y="450" width="640" height="38" rx="6" fill="rgba(0,0,0,0.8)"/>
  <text x="400" y="475" text-anchor="middle" fill="#FFFFFF" font-size="16" font-family="monospace" font-weight="bold">Guardrails at Scale: A Journey into Mult</text>
</svg>