<?xml version="1.0" encoding="UTF-8"?>
<svg xmlns="http://www.w3.org/2000/svg" viewBox="0 0 800 500" width="800" height="500">
  <defs><style>@keyframes id1{0%,100%{transform:translateY(0)}50%{transform:translateY(-4px)}}</style></defs>
  <rect width="800" height="500" fill="#2C1810"/>
  <rect x="0" y="0" width="800" height="300" fill="#D4C4A8"/><rect x="0" y="288" width="800" height="12" fill="#B8A888"/><rect x="0" y="300" width="800" height="200" fill="#8B7355"/><rect x="0" y="300" width="2" height="200" fill="#7A6448"/><rect x="48" y="300" width="2" height="200" fill="#7A6448"/><rect x="96" y="300" width="2" height="200" fill="#7A6448"/><rect x="144" y="300" width="2" height="200" fill="#7A6448"/><rect x="192" y="300" width="2" height="200" fill="#7A6448"/><rect x="240" y="300" width="2" height="200" fill="#7A6448"/><rect x="288" y="300" width="2" height="200" fill="#7A6448"/><rect x="336" y="300" width="2" height="200" fill="#7A6448"/><rect x="384" y="300" width="2" height="200" fill="#7A6448"/><rect x="432" y="300" width="2" height="200" fill="#7A6448"/><rect x="480" y="300" width="2" height="200" fill="#7A6448"/><rect x="528" y="300" width="2" height="200" fill="#7A6448"/><rect x="576" y="300" width="2" height="200" fill="#7A6448"/><rect x="624" y="300" width="2" height="200" fill="#7A6448"/><rect x="672" y="300" width="2" height="200" fill="#7A6448"/><rect x="720" y="300" width="2" height="200" fill="#7A6448"/><rect x="768" y="300" width="2" height="200" fill="#7A6448"/><rect x="20" y="32" width="280" height="160" fill="#FFFFFF"/><rect x="20" y="32" width="280" height="4" fill="#BDC3C7"/><rect x="20" y="188" width="280" height="4" fill="#BDC3C7"/><rect x="20" y="32" width="4" height="160" fill="#BDC3C7"/><rect x="296" y="32" width="4" height="160" fill="#BDC3C7"/><rect x="32" y="48" width="140" height="8" fill="#3498DB"/><rect x="32" y="64" width="196" height="8" fill="#E74C3C"/><rect x="32" y="80" width="112" height="8" fill="#2ECC71"/><rect x="32" y="96" width="168" height="8" fill="#3498DB"/><rect x="48" y="56" width="60" height="32" fill="#3498DB"/><rect x="128" y="56" width="60" height="32" fill="#E74C3C"/><rect x="208" y="56" width="60" height="32" fill="#2ECC71"/><rect x="88" y="112" width="60" height="32" fill="#F1C40F"/><rect x="168" y="112" width="60" height="32" fill="#9B59B6"/><rect x="108" y="88" width="4" height="24" fill="#333"/><rect x="188" y="88" width="4" height="24" fill="#333"/><rect x="116" y="128" width="52" height="4" fill="#333"/><g style="animation:id1 2s ease-in-out 0s infinite"><ellipse cx="380" cy="400" rx="20" ry="6" fill="rgba(0,0,0,0.2)"/><rect x="368" y="320" width="24" height="12" fill="#D4A84B"/><rect x="368" y="332" width="24" height="16" fill="#EAC086"/><rect x="372" y="336" width="4" height="4" fill="#000000"/><rect x="384" y="336" width="4" height="4" fill="#000000"/><rect x="364" y="348" width="32" height="24" fill="#1ABC9C"/><rect x="360" y="352" width="8" height="16" fill="#1ABC9C"/><rect x="392" y="352" width="8" height="16" fill="#1ABC9C"/><rect x="360" y="368" width="8" height="4" fill="#EAC086"/><rect x="392" y="368" width="8" height="4" fill="#EAC086"/><rect x="368" y="372" width="12" height="24" fill="#2C3E50"/><rect x="380" y="372" width="12" height="24" fill="#2C3E50"/><rect x="368" y="396" width="12" height="4" fill="#1a1a1a"/><rect x="380" y="396" width="12" height="4" fill="#1a1a1a"/></g><g ><ellipse cx="580" cy="400" rx="20" ry="6" fill="rgba(0,0,0,0.2)"/><rect x="568" y="320" width="24" height="12" fill="#8B6914"/><rect x="568" y="332" width="24" height="16" fill="#EAC086"/><rect x="572" y="336" width="4" height="4" fill="#000000"/><rect x="584" y="336" width="4" height="4" fill="#000000"/><rect x="564" y="348" width="32" height="24" fill="#E74C3C"/><rect x="560" y="352" width="8" height="16" fill="#E74C3C"/><rect x="592" y="352" width="8" height="16" fill="#E74C3C"/><rect x="560" y="368" width="8" height="4" fill="#EAC086"/><rect x="592" y="368" width="8" height="4" fill="#EAC086"/><rect x="568" y="372" width="12" height="24" fill="#2C3E50"/><rect x="580" y="372" width="12" height="24" fill="#2C3E50"/><rect x="568" y="396" width="12" height="4" fill="#1a1a1a"/><rect x="580" y="396" width="12" height="4" fill="#1a1a1a"/></g><rect x="500" y="200" width="154" height="32" fill="#FFFFFF"/><rect x="508" y="232" width="8" height="8" fill="#FFFFFF"/><rect x="500" y="200" width="154" height="2" fill="#BDC3C7"/><rect x="500" y="230" width="154" height="2" fill="#BDC3C7"/><rect x="500" y="200" width="2" height="32" fill="#BDC3C7"/><rect x="652" y="200" width="2" height="32" fill="#BDC3C7"/><text x="512" y="222" fill="#000000" font-size="11.2" font-family="monospace" font-weight="bold">Microservices</text><rect x="728" y="336" width="24" height="32" fill="#27AE60"/><rect x="724" y="344" width="12" height="20" fill="#1E8449"/><rect x="744" y="348" width="12" height="16" fill="#1E8449"/><rect x="732" y="368" width="16" height="8" fill="#1E8449"/><rect x="728" y="376" width="24" height="24" fill="#D35400"/><rect x="732" y="376" width="16" height="4" fill="#3E2723"/>
  <rect x="80" y="450" width="640" height="38" rx="6" fill="rgba(0,0,0,0.8)"/>
  <text x="400" y="475" text-anchor="middle" fill="#FFFFFF" font-size="16" font-family="monospace" font-weight="bold">From 3am Pager to Sub-100ms Dash: A Tiny</text>
</svg>