<?xml version="1.0" encoding="UTF-8"?>
<svg xmlns="http://www.w3.org/2000/svg" viewBox="0 0 800 500" width="800" height="500">
  <defs><style>@keyframes id1{0%,100%{transform:translateY(0)}50%{transform:translateY(-4px)}}
@keyframes id2{0%,100%{transform:translateY(0)}50%{transform:translateY(-4px)}}</style></defs>
  <rect width="800" height="500" fill="#2C1810"/>
  <rect x="0" y="0" width="800" height="300" fill="#D4C4A8"/><rect x="0" y="288" width="800" height="12" fill="#B8A888"/><rect x="0" y="300" width="800" height="200" fill="#8B7355"/><rect x="0" y="300" width="2" height="200" fill="#7A6448"/><rect x="48" y="300" width="2" height="200" fill="#7A6448"/><rect x="96" y="300" width="2" height="200" fill="#7A6448"/><rect x="144" y="300" width="2" height="200" fill="#7A6448"/><rect x="192" y="300" width="2" height="200" fill="#7A6448"/><rect x="240" y="300" width="2" height="200" fill="#7A6448"/><rect x="288" y="300" width="2" height="200" fill="#7A6448"/><rect x="336" y="300" width="2" height="200" fill="#7A6448"/><rect x="384" y="300" width="2" height="200" fill="#7A6448"/><rect x="432" y="300" width="2" height="200" fill="#7A6448"/><rect x="480" y="300" width="2" height="200" fill="#7A6448"/><rect x="528" y="300" width="2" height="200" fill="#7A6448"/><rect x="576" y="300" width="2" height="200" fill="#7A6448"/><rect x="624" y="300" width="2" height="200" fill="#7A6448"/><rect x="672" y="300" width="2" height="200" fill="#7A6448"/><rect x="720" y="300" width="2" height="200" fill="#7A6448"/><rect x="768" y="300" width="2" height="200" fill="#7A6448"/><rect x="20" y="60" width="88" height="112" fill="#FFFFFF"/><rect x="28" y="68" width="72" height="96" fill="#87CEEB"/><rect x="76" y="76" width="16" height="16" fill="#FFD93D"/><rect x="36" y="92" width="24" height="8" fill="#FFFFFF"/><rect x="60" y="60" width="8" height="112" fill="#FFFFFF"/><rect x="20" y="112" width="88" height="8" fill="#FFFFFF"/><rect x="140" y="48" width="152" height="88" fill="#FFFFFF"/><rect x="140" y="48" width="152" height="4" fill="#BDC3C7"/><rect x="140" y="132" width="152" height="4" fill="#BDC3C7"/><rect x="140" y="48" width="4" height="88" fill="#BDC3C7"/><rect x="288" y="48" width="4" height="88" fill="#BDC3C7"/><rect x="152" y="64" width="76" height="8" fill="#3498DB"/><rect x="152" y="80" width="106.39999999999999" height="8" fill="#E74C3C"/><rect x="152" y="96" width="60.800000000000004" height="8" fill="#2ECC71"/><rect x="152" y="112" width="91.2" height="8" fill="#3498DB"/><rect x="32" y="368" width="140" height="8" fill="#A0522D"/><rect x="32" y="376" width="140" height="4" fill="#8B4513"/><rect x="40" y="380" width="124" height="16" fill="#8B4513"/><rect x="44" y="396" width="8" height="12" fill="#8B4513"/><rect x="152" y="396" width="8" height="12" fill="#8B4513"/><rect x="72" y="352" width="40" height="8" fill="#3498DB"/><rect x="76" y="360" width="32" height="24" fill="#3498DB"/><rect x="72" y="384" width="40" height="8" fill="#3498DB"/><rect x="76" y="392" width="8" height="16" fill="#95A5A6"/><rect x="100" y="392" width="8" height="16" fill="#95A5A6"/><rect x="48" y="328" width="72" height="32" fill="#7F8C8D"/><rect x="52" y="332" width="64" height="24" fill="#4FC3F7"/><rect x="56" y="336" width="24" height="4" fill="#FFF"/><rect x="56" y="344" width="40" height="4" fill="#AED581"/><rect x="44" y="360" width="80" height="12" fill="#95A5A6"/><g style="animation:id1 2s ease-in-out 0s infinite"><ellipse cx="96" cy="400" rx="20" ry="6" fill="rgba(0,0,0,0.2)"/><rect x="84" y="344" width="24" height="12" fill="#1a1a1a"/><rect x="84" y="356" width="24" height="16" fill="#FFCD94"/><rect x="88" y="360" width="4" height="4" fill="#000000"/><rect x="100" y="360" width="4" height="4" fill="#000000"/><rect x="80" y="372" width="32" height="20" fill="#3498DB"/><rect x="76" y="380" width="8" height="12" fill="#3498DB"/><rect x="108" y="380" width="8" height="12" fill="#3498DB"/><rect x="80" y="392" width="32" height="8" fill="#2C3E50"/><rect x="76" y="396" width="12" height="8" fill="#1a1a1a"/><rect x="104" y="396" width="12" height="8" fill="#1a1a1a"/></g><g ><ellipse cx="440" cy="400" rx="20" ry="6" fill="rgba(0,0,0,0.2)"/><rect x="428" y="320" width="24" height="12" fill="#A0522D"/><rect x="428" y="332" width="24" height="16" fill="#EAC086"/><rect x="432" y="336" width="4" height="4" fill="#000000"/><rect x="444" y="336" width="4" height="4" fill="#000000"/><rect x="424" y="348" width="32" height="24" fill="#E74C3C"/><rect x="420" y="352" width="8" height="16" fill="#E74C3C"/><rect x="452" y="352" width="8" height="16" fill="#E74C3C"/><rect x="420" y="368" width="8" height="4" fill="#EAC086"/><rect x="452" y="368" width="8" height="4" fill="#EAC086"/><rect x="428" y="372" width="12" height="24" fill="#2C3E50"/><rect x="440" y="372" width="12" height="24" fill="#2C3E50"/><rect x="428" y="396" width="12" height="4" fill="#1a1a1a"/><rect x="440" y="396" width="12" height="4" fill="#1a1a1a"/></g><g style="animation:id2 2s ease-in-out 0.3s infinite"><ellipse cx="600" cy="400" rx="20" ry="6" fill="rgba(0,0,0,0.2)"/><rect x="588" y="320" width="24" height="12" fill="#8B6914"/><rect x="588" y="332" width="24" height="16" fill="#8D5524"/><rect x="592" y="336" width="4" height="4" fill="#000000"/><rect x="604" y="336" width="4" height="4" fill="#000000"/><rect x="584" y="348" width="32" height="24" fill="#2ECC71"/><rect x="580" y="352" width="8" height="16" fill="#2ECC71"/><rect x="612" y="352" width="8" height="16" fill="#2ECC71"/><rect x="580" y="368" width="8" height="4" fill="#8D5524"/><rect x="612" y="368" width="8" height="4" fill="#8D5524"/><rect x="588" y="372" width="12" height="24" fill="#2C3E50"/><rect x="600" y="372" width="12" height="24" fill="#2C3E50"/><rect x="588" y="396" width="12" height="4" fill="#1a1a1a"/><rect x="600" y="396" width="12" height="4" fill="#1a1a1a"/></g><rect x="728" y="336" width="24" height="32" fill="#27AE60"/><rect x="724" y="344" width="12" height="20" fill="#1E8449"/><rect x="744" y="348" width="12" height="16" fill="#1E8449"/><rect x="732" y="368" width="16" height="8" fill="#1E8449"/><rect x="728" y="376" width="24" height="24" fill="#D35400"/><rect x="732" y="376" width="16" height="4" fill="#3E2723"/><rect x="480" y="200" width="84" height="32" fill="#FFFFFF"/><rect x="488" y="232" width="8" height="8" fill="#FFFFFF"/><rect x="480" y="200" width="84" height="2" fill="#BDC3C7"/><rect x="480" y="230" width="84" height="2" fill="#BDC3C7"/><rect x="480" y="200" width="2" height="32" fill="#BDC3C7"/><rect x="562" y="200" width="2" height="32" fill="#BDC3C7"/><text x="492" y="222" fill="#000000" font-size="11.2" font-family="monospace" font-weight="bold">Great!</text>
  <rect x="80" y="450" width="640" height="38" rx="6" fill="rgba(0,0,0,0.8)"/>
  <text x="400" y="475" text-anchor="middle" fill="#FFFFFF" font-size="16" font-family="monospace" font-weight="bold">Drift, Disrupted: How a Centralized Plat</text>
</svg>