<?xml version="1.0" encoding="UTF-8"?>
<svg xmlns="http://www.w3.org/2000/svg" viewBox="0 0 800 500" width="800" height="500">
  <defs><style>@keyframes id1{0%,100%{transform:translateY(0)}50%{transform:translateY(-4px)}}</style></defs>
  <rect width="800" height="500" fill="#2C1810"/>
  <rect x="0" y="0" width="800" height="300" fill="#D4C4A8"/><rect x="0" y="288" width="800" height="12" fill="#B8A888"/><rect x="0" y="300" width="800" height="200" fill="#8B7355"/><rect x="0" y="300" width="2" height="200" fill="#7A6448"/><rect x="48" y="300" width="2" height="200" fill="#7A6448"/><rect x="96" y="300" width="2" height="200" fill="#7A6448"/><rect x="144" y="300" width="2" height="200" fill="#7A6448"/><rect x="192" y="300" width="2" height="200" fill="#7A6448"/><rect x="240" y="300" width="2" height="200" fill="#7A6448"/><rect x="288" y="300" width="2" height="200" fill="#7A6448"/><rect x="336" y="300" width="2" height="200" fill="#7A6448"/><rect x="384" y="300" width="2" height="200" fill="#7A6448"/><rect x="432" y="300" width="2" height="200" fill="#7A6448"/><rect x="480" y="300" width="2" height="200" fill="#7A6448"/><rect x="528" y="300" width="2" height="200" fill="#7A6448"/><rect x="576" y="300" width="2" height="200" fill="#7A6448"/><rect x="624" y="300" width="2" height="200" fill="#7A6448"/><rect x="672" y="300" width="2" height="200" fill="#7A6448"/><rect x="720" y="300" width="2" height="200" fill="#7A6448"/><rect x="768" y="300" width="2" height="200" fill="#7A6448"/><rect x="120" y="132" width="160" height="8" fill="#2ECC71"/><circle cx="180" cy="136" r="8" fill="#2ECC71"/><rect x="180" y="108" width="8" height="24" fill="#3498DB"/><rect x="180" y="108" width="80" height="8" fill="#3498DB"/><circle cx="260" cy="112" r="8" fill="#3498DB"/><circle cx="260" cy="136" r="8" fill="#2ECC71"/><circle cx="140" cy="136" r="6" fill="#FFF"/><circle cx="220" cy="136" r="6" fill="#FFF"/><rect x="120" y="232" width="160" height="8" fill="#2ECC71"/><circle cx="180" cy="236" r="8" fill="#2ECC71"/><rect x="180" y="208" width="8" height="24" fill="#3498DB"/><rect x="180" y="208" width="80" height="8" fill="#3498DB"/><circle cx="260" cy="212" r="8" fill="#3498DB"/><circle cx="260" cy="236" r="8" fill="#2ECC71"/><circle cx="140" cy="236" r="6" fill="#FFF"/><circle cx="220" cy="236" r="6" fill="#FFF"/><text x="40" y="136" fill="#2ECC71" font-size="10" font-family="monospace">main</text><text x="40" y="236" fill="#3498DB" font-size="10" font-family="monospace">feat</text><rect x="400" y="368" width="200" height="8" fill="#A0522D"/><rect x="400" y="376" width="200" height="4" fill="#8B4513"/><rect x="408" y="380" width="184" height="16" fill="#8B4513"/><rect x="412" y="396" width="8" height="12" fill="#8B4513"/><rect x="580" y="396" width="8" height="12" fill="#8B4513"/><rect x="480" y="352" width="40" height="8" fill="#F39C12"/><rect x="484" y="360" width="32" height="24" fill="#F39C12"/><rect x="480" y="384" width="40" height="8" fill="#F39C12"/><rect x="484" y="392" width="8" height="16" fill="#95A5A6"/><rect x="508" y="392" width="8" height="16" fill="#95A5A6"/><rect x="432" y="328" width="72" height="32" fill="#7F8C8D"/><rect x="436" y="332" width="64" height="24" fill="#4FC3F7"/><rect x="440" y="336" width="24" height="4" fill="#FFF"/><rect x="440" y="344" width="40" height="4" fill="#AED581"/><rect x="428" y="360" width="80" height="12" fill="#95A5A6"/><g style="animation:id1 2s ease-in-out 0s infinite"><ellipse cx="500" cy="400" rx="20" ry="6" fill="rgba(0,0,0,0.2)"/><rect x="488" y="344" width="24" height="12" fill="#1a1a1a"/><rect x="488" y="356" width="24" height="16" fill="#8D5524"/><rect x="492" y="360" width="4" height="4" fill="#000000"/><rect x="504" y="360" width="4" height="4" fill="#000000"/><rect x="484" y="372" width="32" height="20" fill="#F39C12"/><rect x="480" y="380" width="8" height="12" fill="#F39C12"/><rect x="512" y="380" width="8" height="12" fill="#F39C12"/><rect x="484" y="392" width="32" height="8" fill="#2C3E50"/><rect x="480" y="396" width="12" height="8" fill="#1a1a1a"/><rect x="508" y="396" width="12" height="8" fill="#1a1a1a"/></g><rect x="560" y="220" width="94" height="32" fill="#FFFFFF"/><rect x="568" y="252" width="8" height="8" fill="#FFFFFF"/><rect x="560" y="220" width="94" height="2" fill="#BDC3C7"/><rect x="560" y="250" width="94" height="2" fill="#BDC3C7"/><rect x="560" y="220" width="2" height="32" fill="#BDC3C7"/><rect x="652" y="220" width="2" height="32" fill="#BDC3C7"/><text x="572" y="242" fill="#000000" font-size="11.2" font-family="monospace" font-weight="bold">Merged!</text>
  <rect x="80" y="450" width="640" height="38" rx="6" fill="rgba(0,0,0,0.8)"/>
  <text x="400" y="475" text-anchor="middle" fill="#FFFFFF" font-size="16" font-family="monospace" font-weight="bold">The Concurrency Trap: How An Atomic Coun</text>
</svg>